<?xml version="1.0" encoding="utf-8"?>
<!-- Generator: Adobe Illustrator 27.6.1, SVG Export Plug-In . SVG Version: 6.00 Build 0)  -->
<svg version="1.1" id="Layer_1" xmlns="http://www.w3.org/2000/svg" xmlns:xlink="http://www.w3.org/1999/xlink" x="0px" y="0px"
	 viewBox="0 0 205.8 65" style="enable-background:new 0 0 205.8 65;" xml:space="preserve">
<style type="text/css">
	.st0{fill:#FF4D59;}
	.st1{fill:#FFFFFF;}
</style>
<path class="st0" d="M4.3,65c0,0,24.1-9.7,33.5-7.4c9.4,2.3-13.3-5-13.3-5H4.3V65z"/>
<path class="st0" d="M5.6,0.7v48.1c0,0,28.3,3.4,32.2,8.7c0,0-12.4-13.2-27.1-13.2V3.9c0,0,15.9-3.4,28.3,6.9
	C39,10.8,32.3-0.8,5.6,0.7z"/>
<path class="st1" d="M0,7.1c0,2.2,0,50.5,0,50.5s17.8-5.5,37.8,0c0,0-13.8-9.3-32.1-8.7V7.1H0z"/>
<rect x="41.2" y="11" transform="matrix(0.8393 0.5437 -0.5437 0.8393 16.7134 -22.8388)" class="st0" width="11.6" height="11.6"/>
<rect x="40.9" y="34.2" transform="matrix(0.8393 0.5437 -0.5437 0.8393 28.3824 -18.4726)" class="st0" width="9.1" height="9.1"/>
<rect x="53.6" y="24.3" transform="matrix(0.8393 0.5437 -0.5437 0.8393 24.5969 -26.731)" class="st1" width="7.8" height="7.8"/>
<rect x="35.5" y="22.8" transform="matrix(0.8393 0.5437 -0.5437 0.8393 20.3072 -16.8665)" class="st1" width="6.3" height="6.3"/>
<rect x="18.9" y="35.7" transform="matrix(0.8393 0.5437 -0.5437 0.8393 23.8657 -5.3047)" class="st0" width="4.1" height="4.1"/>
<rect x="25.5" y="27.9" transform="matrix(0.8393 0.5437 -0.5437 0.8393 20.7063 -10.1719)" class="st0" width="4.1" height="4.1"/>
<rect x="30.4" y="36.7" transform="matrix(0.8393 0.5437 -0.5437 0.8393 26.2871 -11.3852)" class="st0" width="4.1" height="4.1"/>
<g>
	<path class="st1" d="M94.6,45.1H71.2c0-10.4,0-20.9,0-31.3h23.5v5.7H77.1v7.2h17v5.5h-17v7.1h17.6V45.1z"/>
	<path class="st1" d="M121.7,13.8v31.3h-5.1l-0.4-3c-1.7,2.6-4.4,3.5-7.1,3.5c-6.5,0-11.4-4.3-11.4-11.5c0-7.6,4.8-11.5,11.2-11.5
		c2.3,0,6,1.3,7.2,3.5V13.8H121.7z M103.2,34c0,3.8,2.8,6.5,6.3,6.5c3.4,0,6.4-2.5,6.4-6.5c0-3.8-3-6.4-6.4-6.4
		C106,27.6,103.2,30,103.2,34z"/>
	<path class="st1" d="M131.6,23v11.5c0,3.4,1.8,5.9,5.3,5.9c3.4,0,5.6-2.8,5.6-6.2V23h5.4v22.1h-4.9l-0.4-3
		c-2.3,2.2-4.4,3.3-7.5,3.3c-5.3,0-9.1-4-9.1-10.8V23H131.6z"/>
	<path class="st1" d="M154.6,45.1v-17h-4.1v-4.8h4.1v-1.5c0-5.9,4-8.6,8.4-8.6c1.9,0,3.9,0.6,5.7,1.8l-2,4.1
		c-1.2-0.8-2.2-1.2-3.4-1.2c-1.9,0-3.3,1.3-3.3,3.9v1.5h6.5v4.8H160v17H154.6z"/>
	<path class="st1" d="M176.3,16.8c0,4.3-6.4,4.3-6.4,0C169.9,12.5,176.3,12.5,176.3,16.8z M170.4,22.9v22.2h5.5V22.9H170.4z"/>
	<path class="st1" d="M195.7,23h6.5v0.2L195,33.9l7.7,11.1v0.1h-6.5l-4.8-7.4l-4.8,7.4h-6.5v-0.1l7.7-11.1l-7.2-10.7V23h6.5l4.3,7.5
		L195.7,23z"/>
</g>
</svg>
